<svg xmlns="http://www.w3.org/2000/svg" viewBox="54 0 185 97.83">
    <defs><style>.cls-1{fill:#d4e9f4;}.cls-2{fill:#80888e;}.cls-3{fill:#b6bbc1;}</style></defs>
    <polygon class="cls-2" points="115.67 13.37 144.02 8.32 186.35 27.34 159.11 50.91 115.67 13.37"/>
    <path class="cls-3" d="M95.67,26.49H227.33a0,0,0,0,1,0,0V62.16a0,0,0,0,1,0,0H95.67a17,17,0,0,1-17-17V43.49a17,17,0,0,1,17-17Z" transform="translate(306 88.64) rotate(180)"/>
    <rect class="cls-3" x="202.67" y="39.66" width="36.83" height="22.5" rx="11.25" ry="11.25" transform="translate(442.17 101.81) rotate(-180)"/>
    <polygon class="cls-3" points="78.67 62.16 109.05 48.64 78.67 6.82 52.78 0 78.67 62.16"/>
    <polygon class="cls-3" points="109.72 97.83 160.69 97.6 195.16 53.2 148.32 53.2 109.72 97.83"/>
    <path class="cls-1" d="M201.95,31.72a5.23,5.23,0,0,1,5.23-5.23h3.77c5.27-.4,14.1,4.31,15.93,13.17H207.18a5.23,5.23,0,0,1-5.23-5.23Z"/>
    <polygon class="cls-1" points="172.38 36.61 191.8 36.61 187.86 31.29 168.44 31.29 172.38 36.61"/>
    <polygon class="cls-1" points="145.1 36.61 164.51 36.61 160.58 31.29 141.16 31.29 145.1 36.61"/>
    <polygon class="cls-1" points="117.01 36.61 136.43 36.61 132.49 31.29 113.08 31.29 117.01 36.61"/>
    <polygon class="cls-1" points="90.3 36.61 109.72 36.61 105.78 31.29 86.36 31.29 90.3 36.61"/>
</svg>