<svg xmlns="http://www.w3.org/2000/svg" viewBox="0 0 400 400">
	<g transform="matrix(1.3333333,0,0,-1.3333333,0,400)" id="g10">
	<g
       id="g12"><g
         clip-path="url(#clipPath18)"
         id="g14"><g
           transform="translate(10.271,151.9448)"
           id="g20"><path
             id="path22"
             style="fill:#b6bbc1;fill-opacity:1;fill-rule:nonzero;stroke:none"
             d="M 0,0 C -4.475,0 -5.248,-4.227 -5.776,-8.67 -9.112,-36.691 5.183,-93.395 24.405,-93.395 H 126.216 V 0 Z" /></g><g
           transform="translate(292.3057,155.0439)"
           id="g24"><path
             id="path26"
             style="fill:#b6bbc1;fill-opacity:1;fill-rule:nonzero;stroke:none"
             d="M 0,0 C 3.322,0.222 5.679,-3.184 4.287,-6.209 -6.343,-29.322 -33.979,-96.494 -54.008,-96.494 H -155.819 V -3.099 Z" /></g><g
           transform="translate(92.6484,134.79)"
           id="g28"><path
             id="path30"
             style="fill:#b6bbc1;fill-opacity:1;fill-rule:nonzero;stroke:none"
             d="m 0,0 h -55.275 c -5.263,0 -9.53,4.268 -9.53,9.53 v 72.429 c 0,5.264 4.267,9.53 9.53,9.53 h 67.179 c 1.208,0 1.784,-1.488 0.896,-2.307 C 10.62,87.17 9.53,85.939 9.53,81.959 V 9.53 C 9.53,4.268 5.263,0 0,0" /></g><path
           id="path32"
           style="fill:#d4e9f4;fill-opacity:1;fill-rule:nonzero;stroke:none"
           d="M 53.062,200.328 H 35.468 v 17.594 h 17.594 z" /><path
           id="path34"
           style="fill:#d4e9f4;fill-opacity:1;fill-rule:nonzero;stroke:none"
           d="M 73.588,200.328 H 55.994 v 17.594 h 17.594 z" /><path
           id="path36"
           style="fill:#d4e9f4;fill-opacity:1;fill-rule:nonzero;stroke:none"
           d="M 94.554,200.328 H 76.96 v 17.594 h 17.594 z" /><g
           transform="translate(130.6748,150.0386)"
           id="g38"><path
             id="path40"
             style="fill:#b6bbc1;fill-opacity:1;fill-rule:nonzero;stroke:none"
             d="m 0,0 h -32.214 c -1.105,0 -2,0.896 -2,2 v 32.214 c 0,1.105 0.895,2 2,2 H 0 c 1.104,0 2,-0.895 2,-2 V 2 C 2,0.896 1.104,0 0,0" /></g><g
           transform="translate(117.6147,182.9751)"
           id="g42"><path
             id="path44"
             style="fill:#b6bbc1;fill-opacity:1;fill-rule:nonzero;stroke:none"
             d="M 0,0 -2.52,1.02 C -3.288,1.331 -3.658,2.205 -3.348,2.973 L 7.36,29.43 c 0.311,0.768 1.185,1.138 1.953,0.827 l 2.52,-1.019 c 0.768,-0.311 1.139,-1.186 0.828,-1.953 L 1.953,0.828 C 1.642,0.06 0.768,-0.311 0,0" /></g><g
           transform="translate(124.9082,208.5752)"
           id="g46"><path
             id="path48"
             style="fill:#b6bbc1;fill-opacity:1;fill-rule:nonzero;stroke:none"
             d="m 0,0 -0.717,2.622 c -0.218,0.799 0.253,1.624 1.051,1.842 l 22.912,6.265 c 0.799,0.218 1.624,-0.252 1.842,-1.052 L 25.805,7.056 C 26.023,6.256 25.553,5.432 24.754,5.213 L 1.843,-1.051 C 1.043,-1.27 0.219,-0.799 0,0" /></g><path
           id="path50"
           style="fill:#b6bbc1;fill-opacity:1;fill-rule:nonzero;stroke:none"
           d="m 146.255,193.758 h -2.859 v 19.656 h 2.859 z" /><g
           transform="translate(68.8169,223.897)"
           id="g52"><path
             id="path54"
             style="fill:#b6bbc1;fill-opacity:1;fill-rule:nonzero;stroke:none"
             d="m 0,0 h -2.594 c -0.788,0 -1.432,0.644 -1.432,1.432 v 23.344 c 0,0.787 0.644,1.432 1.432,1.432 H 0 c 0.787,0 1.432,-0.645 1.432,-1.432 V 1.432 C 1.432,0.644 0.787,0 0,0" /></g><g
           transform="translate(89.1758,246.769)"
           id="g56"><path
             id="path58"
             style="fill:#b6bbc1;fill-opacity:1;fill-rule:nonzero;stroke:none"
             d="m 0,0 h -43.312 c -0.55,0 -1,0.45 -1,1 v 10.389 c 0,0.55 0.45,1 1,1 H 0 c 0.55,0 1,-0.45 1,-1 V 1 C 1,0.45 0.55,0 0,0" /></g><g
           transform="translate(89.1758,224.6118)"
           id="g60"><path
             id="path62"
             style="fill:#b6bbc1;fill-opacity:1;fill-rule:nonzero;stroke:none"
             d="m 0,0 h -43.312 c -0.55,0 -1,0.45 -1,1 v 10.389 c 0,0.55 0.45,1 1,1 H 0 c 0.55,0 1,-0.45 1,-1 V 1 C 1,0.45 0.55,0 0,0" /></g><path
           id="path64"
           style="fill:#80888e;fill-opacity:1;fill-rule:nonzero;stroke:none"
           d="m 189.379,151.826 h -33.594 v 33.593 h 33.594 z" /><path
           id="path66"
           style="fill:#80888e;fill-opacity:1;fill-rule:nonzero;stroke:none"
           d="m 229.405,151.826 h -33.594 v 33.593 h 33.594 z" /><path
           id="path68"
           style="fill:#80888e;fill-opacity:1;fill-rule:nonzero;stroke:none"
           d="m 268.955,150.873 h -33.594 v 33.594 h 33.594 z" /><path
           id="path70"
           style="fill:#80888e;fill-opacity:1;fill-rule:nonzero;stroke:none"
           d="m 189.617,187.266 h -33.594 v 33.594 h 33.594 z" /><path
           id="path72"
           style="fill:#80888e;fill-opacity:1;fill-rule:nonzero;stroke:none"
           d="M 229.644,187.266 H 196.05 v 33.594 h 33.594 z" /><path
           id="path74"
           style="fill:#80888e;fill-opacity:1;fill-rule:nonzero;stroke:none"
           d="m 269.193,186.312 h -33.594 v 33.594 h 33.594 z" /><g
           transform="translate(7.4976,104.8926)"
           id="g76"><path
             id="path78"
             style="fill:#80888e;fill-opacity:1;fill-rule:nonzero;stroke:none"
             d="m 0,0 c 5.009,-23.725 15.182,-46.343 27.322,-46.343 h 101.81 V 0 Z" /></g><g
           transform="translate(136.6299,58.5498)"
           id="g80"><path
             id="path82"
             style="fill:#80888e;fill-opacity:1;fill-rule:nonzero;stroke:none"
             d="m 0,0 h 101.811 c 11.659,0 25.894,22.761 37.854,46.343 H 0 Z" /></g><g
           transform="translate(149.2656,106.8018)"
           id="g84"><path
             id="path86"
             style="fill:#d4e9f4;fill-opacity:1;fill-rule:nonzero;stroke:none"
             d="m 0,0 c 0,-6.524 -5.289,-11.813 -11.813,-11.813 -6.524,0 -11.813,5.289 -11.813,11.813 0,6.524 5.289,11.813 11.813,11.813 C -5.289,11.813 0,6.524 0,0" /></g><g
           transform="translate(196.4473,106.8018)"
           id="g88"><path
             id="path90"
             style="fill:#d4e9f4;fill-opacity:1;fill-rule:nonzero;stroke:none"
             d="m 0,0 c 0,-6.524 -5.289,-11.813 -11.813,-11.813 -6.525,0 -11.814,5.289 -11.814,11.813 0,6.524 5.289,11.813 11.814,11.813 C -5.289,11.813 0,6.524 0,0" /></g><g
           transform="translate(241.457,106.8018)"
           id="g92"><path
             id="path94"
             style="fill:#d4e9f4;fill-opacity:1;fill-rule:nonzero;stroke:none"
             d="m 0,0 c 0,-6.524 -5.289,-11.813 -11.813,-11.813 -6.525,0 -11.814,5.289 -11.814,11.813 0,6.524 5.289,11.813 11.814,11.813 C -5.289,11.813 0,6.524 0,0" /></g></g></g></g></svg>