<?xml version="1.0" encoding="UTF-8" standalone="no"?>
<svg xmlns="http://www.w3.org/2000/svg" viewBox="0 210 285 107" version="1.1">
	<defs><style>.cls-1{fill:#80888e;fill-opacity:1;fill-rule:nonzero;stroke:none}.cls-2{fill:#b6bbc1;fill-opacity:1;fill-rule:nonzero;stroke:none}.cls-3{fill:#d4e9f4;fill-opacity:1;fill-rule:nonzero;stroke:none}</style></defs>
		 <g transform="matrix(1,0,0,-1,0,400)" id="g10">
		 <path id="path12" class="cls-1" d="m 237.881,177.976 h -5.249 v 11.168 h 5.249 z" />
		 <path id="path14" class="cls-1" d="M 219.92,100.058 H 5 v 7.41 h 214.92 z" />
		 <g id="g16"><g clip-path="url(#clipPath22)" id="g18">
		 <g transform="translate(274.4424,107.4678)" id="g24">
		 <path id="path26" class="cls-2" d="M 0,0 H -47.112 V 72.875 H 0 c 3.314,0 6,-2.686 6,-6 V 6 C 6,2.687 3.314,0 0,0" />
		 </g>
		 <g transform="translate(296.5,107.4678)" id="g28">
		 <path id="path30" class="cls-2" d="m 0,0 h -34.932 c -1.657,0 -3,1.344 -3,3 v 34.761 c 0,1.657 1.343,3 3,3 H -3 c 1.657,0 3,-1.343 3,-3 z" />
		 </g>
		 <g transform="translate(265.3262,142.0527)" id="g32">
		 <path id="path34" class="cls-3" d="m 0,0 h -24.114 c -2.209,0 -4,1.791 -4,4 v 21.645 c 0,2.209 1.791,4 4,4 H 0 c 2.209,0 4,-1.791 4,-4 V 4 C 4,1.791 2.209,0 0,0" />
		 </g>
		 <path
           id="path36"
           class="cls-2"
           d="M 219.92,107.468 H 5 v 72.875 h 214.92 z" /><path
           id="path38"
           class="cls-2"
           d="m 231.036,109.938 h -13.587 v 9.882 h 13.587 z" /><g
           transform="translate(208.8027,100.6748)"
           id="g40"><path
             id="path42"
             class="cls-1"
             d="M 0,0 C 0,10.573 -8.571,19.146 -19.145,19.146 -29.719,19.146 -38.29,10.573 -38.29,0 c 0,-0.209 0.024,-0.411 0.031,-0.617 H -0.031 C -0.024,-0.411 0,-0.209 0,0" /></g><g
           transform="translate(205.0977,99.4395)"
           id="g44"><path
             id="path46"
             class="cls-2"
             d="m 0,0 c 0,-8.527 -6.913,-15.439 -15.439,-15.439 -8.528,0 -15.441,6.912 -15.441,15.439 0,8.527 6.913,15.439 15.441,15.439 C -6.913,15.439 0,8.527 0,0" /></g><g
           transform="translate(86.521,100.6748)"
           id="g48"><path
             id="path50"
             class="cls-1"
             d="M 0,0 C 0,10.573 -8.571,19.146 -19.145,19.146 -29.719,19.146 -38.29,10.573 -38.29,0 c 0,-0.209 0.024,-0.411 0.031,-0.617 H -0.031 C -0.024,-0.411 0,-0.209 0,0" /></g><g
           transform="translate(82.8159,99.4395)"
           id="g52"><path
             id="path54"
             class="cls-2"
             d="m 0,0 c 0,-8.527 -6.913,-15.439 -15.44,-15.439 -8.527,0 -15.439,6.912 -15.439,15.439 0,8.527 6.912,15.439 15.439,15.439 C -6.913,15.439 0,8.527 0,0" /></g><g
           transform="translate(48.231,100.6748)"
           id="g56"><path
             id="path58"
             class="cls-1"
             d="M 0,0 C 0,10.573 -8.572,19.146 -19.145,19.146 -29.719,19.146 -38.29,10.573 -38.29,0 c 0,-0.209 0.024,-0.411 0.031,-0.617 H -0.031 C -0.024,-0.411 0,-0.209 0,0" /></g><g
           transform="translate(44.5254,99.4395)"
           id="g60"><path
             id="path62"
             class="cls-2"
             d="m 0,0 c 0,-8.527 -6.913,-15.439 -15.439,-15.439 -8.528,0 -15.44,6.912 -15.44,15.439 0,8.527 6.912,15.439 15.44,15.439 C -6.913,15.439 0,8.527 0,0" /></g><path
           id="path64"
           class="cls-1"
           d="m 296.5,100.058 h -69.17 v 7.41 h 69.17 z" /><g
           transform="translate(273.0322,101.9102)"
           id="g66"><path
             id="path68"
             class="cls-1"
             d="m 0,0 c 0,10.573 -8.572,19.145 -19.146,19.145 -10.573,0 -19.145,-8.572 -19.145,-19.145 0,-0.209 0.024,-0.411 0.031,-0.618 H -0.031 C -0.025,-0.411 0,-0.209 0,0" /></g><g
           transform="translate(269.3262,100.6748)"
           id="g70"><path
             id="path72"
             class="cls-2"
             d="m 0,0 c 0,-8.527 -6.912,-15.439 -15.439,-15.439 -8.528,0 -15.44,6.912 -15.44,15.439 0,8.527 6.912,15.439 15.44,15.439 C -6.912,15.439 0,8.527 0,0" /></g><path
           id="path74"
           class="cls-1"
           d="M 9,108.396 H 5 v 6 h 4 z" /><path
           id="path76"
           class="cls-1"
           d="m 296.5,117.35 h -4.94 v 7.411 h 4.94 z" /><path
           id="path78"
           class="cls-1"
           d="m 296.5,108.703 h -4.94 v 7.411 h 4.94 z" /><g
           transform="translate(78.4927,99.4395)"
           id="g80"><path
             id="path82"
             class="cls-1"
             d="m 0,0 c 0,-6.14 -4.977,-11.116 -11.117,-11.116 -6.139,0 -11.116,4.976 -11.116,11.116 0,6.14 4.977,11.116 11.116,11.116 C -4.977,11.116 0,6.14 0,0" /></g><g
           transform="translate(200.7744,99.4395)"
           id="g84"><path
             id="path86"
             class="cls-1"
             d="m 0,0 c 0,-6.14 -4.978,-11.116 -11.116,-11.116 -6.14,0 -11.117,4.976 -11.117,11.116 0,6.14 4.977,11.116 11.117,11.116 C -4.978,11.116 0,6.14 0,0" /></g><g
           transform="translate(265.0029,100.6748)"
           id="g88"><path
             id="path90"
             class="cls-1"
             d="m 0,0 c 0,-6.14 -4.977,-11.116 -11.116,-11.116 -6.14,0 -11.116,4.976 -11.116,11.116 0,6.14 4.976,11.116 11.116,11.116 C -4.977,11.116 0,6.14 0,0" /></g><g
           transform="translate(40.2021,99.4395)"
           id="g92"><path
             id="path94"
             class="cls-1"
             d="m 0,0 c 0,-6.14 -4.977,-11.116 -11.116,-11.116 -6.14,0 -11.117,4.976 -11.117,11.116 0,6.14 4.977,11.116 11.117,11.116 C -4.977,11.116 0,6.14 0,0" /></g></g></g></g>
			 </svg>