<svg xmlns="http://www.w3.org/2000/svg"
 viewBox="-3 5 638.000000 530.000000"
>

<g transform="translate(0.000000,530.000000) scale(0.100000,-0.100000)" fill="#1565c0" stroke="none">
<path d="M3017 5060 c-135 -23 -286 -85 -386 -159 -126 -94 -269 -259 -311
-360 l-12 -31 -640 0 -640 0 -59 -31 c-142 -76 -218 -193 -219 -335 0 -129 90
-272 212 -335 41 -22 59 -23 333 -30 160 -4 453 -8 652 -8 l361 -1 40 -72
c105 -191 313 -365 514 -432 78 -26 166 -36 312 -36 170 0 234 14 371 80 177
85 311 208 409 372 l51 88 535 0 c618 0 738 7 816 45 64 31 133 105 171 183
24 50 28 69 28 147 0 76 -4 98 -26 145 -38 80 -98 142 -178 184 l-69 36 -636
0 -635 0 -27 48 c-75 134 -174 247 -289 332 -67 49 -186 110 -275 139 -103 33
-297 48 -403 31z m248 -631 c36 -13 73 -38 105 -69 149 -150 106 -396 -87
-492 -71 -34 -189 -33 -258 4 -103 54 -167 150 -173 260 -5 76 6 117 50 182
77 117 230 165 363 115z"/>
<path d="M1345 3591 c-54 -13 -71 -29 -149 -140 -160 -228 -1137 -1765 -1168
-1838 -19 -44 -15 -291 6 -398 50 -254 144 -454 305 -647 207 -249 486 -412
811 -474 150 -28 392 -24 535 9 291 67 513 192 713 401 252 264 382 591 382
963 l1 141 -56 87 c-31 48 -163 256 -294 464 -589 931 -860 1347 -909 1394
-42 40 -108 54 -177 38z m165 -784 c97 -151 282 -443 628 -992 79 -126 147
-236 149 -242 4 -10 -177 -13 -886 -13 -490 0 -891 2 -891 5 0 20 876 1405
889 1405 3 0 53 -73 111 -163z"/>
<path d="M4847 3588 c-44 -12 -79 -52 -197 -228 -208 -312 -1053 -1649 -1105
-1749 -15 -31 -17 -54 -12 -190 8 -224 43 -371 136 -567 266 -559 878 -869
1499 -758 267 48 563 210 755 414 230 244 358 557 374 916 6 131 6 133 -22
186 -112 214 -975 1575 -1201 1894 -24 33 -54 66 -68 72 -38 17 -116 22 -159
10z m134 -715 c488 -759 822 -1293 814 -1301 -8 -9 -1674 -15 -1732 -7 l-42 6
51 82 c174 279 589 933 775 1220 34 53 65 97 67 97 2 0 32 -44 67 -97z"/>
</g>
</svg>
