<?xml version="1.0" encoding="iso-8859-1"?>
<svg version="1.1" id="Layer_1" xmlns="http://www.w3.org/2000/svg" viewBox="295 210 155 205">

<path style="fill:#E6E9EE;" d="M372.8,296.8L372.8,296.8L372.8,296.8L372.8,296.8l-37.2,18v75.6l21.6,23.2c5.2,0.8,10,1.2,15.2,1.2
	s10.4-0.4,15.2-1.2l21.6-23.2v-76L372.8,296.8L372.8,296.8z"/>
<ellipse style="fill:#F9B54C;" cx="372.8" cy="306" rx="24" ry="24"/>

<polygon style="fill:#F1543F;" points="382.8,330 362.8,330 366.8,341.6 379.2,341.6 "/>
<path style="fill:#FF7058;" d="M356.8,413.2c5.2,0.8,10.8,1.2,16.4,1.2s10.8-0.4,16.4-1.2l-10-71.6h-12.4L356.8,413.2z"/>
<g>
	<path style="fill:#324A5E;" d="M460,370l-12-37.2l-46.8-22.4c0,16-1.2,56.4-20.4,104C413.2,411.6,441.6,394.8,460,370z"/>
	<path style="fill:#324A5E;" d="M365.2,414c-19.2-47.6-20.4-87.6-20.4-104L298,332.8L286,370C304,394.8,332.4,411.6,365.2,414z"/>
</g>

<g>
	<path style="fill:#FFFFFF;" d="M396,301.2c0,0,2.8,16.4-23.2,29.2c0,0,19.6,1.6,25.2,20C398.4,350.8,408.8,310.8,396,301.2z"/>
	<path style="fill:#FFFFFF;" d="M349.6,301.2c0,0-2.8,16.4,23.2,29.2c0,0-19.6,1.6-25.2,20C347.6,350.8,336.8,310.8,349.6,301.2z"/>
</g>


<path style="fill:#FFD05B;" d="M411.6,256.4c0,25.2-17.2,56.8-38.8,56.8c-21.6,0-38.8-31.2-38.8-56.8s17.2-35.2,38.8-35.2
	S411.6,231.2,411.6,256.4z"/>


<path style="fill:#324A5E;" d="M359.6,216c0,0,31.2-12.4,47.2,16c17.2,30.4-4.4,63.2-8.8,66c0,0,1.2-5.2,4.4-15.2
	c0,0,7.6-22.4-15.2-26c0,0-22.4-3.2-24-8c0,0,1.6,8,11.6,9.6c0,0-22.8-0.4-30-8.8c0,0-9.6,32.4,4.4,49.6c0,0-24.8-19.6-21.6-50
	C327.6,249.2,326.4,207.6,359.6,216z"/>

</svg>
