<?xml version="1.0" encoding="iso-8859-1"?>
<svg version="1.1" id="Layer_1" xmlns="http://www.w3.org/2000/svg"
	 viewBox="10 30 450 370" style="enable-background:new 0 0 356.106 356.106;" xml:space="preserve">

	<g transform="translate(-30,180),rotate(-30)">

		<path style="fill:#61B4E4;" d="M162.959,292.846c-1.806,0-3.646-0.171-5.467-0.508L86.18,279.147
			c-16.03-2.965-28.587-18.058-28.587-34.36v-33.698c0-15.62,11.545-27.399,26.854-27.399c1.806,0,3.646,0.171,5.467,0.508
			l71.313,13.191c16.03,2.965,28.587,18.058,28.587,34.36v33.698C189.813,281.067,178.268,292.846,162.959,292.846z M84.447,204.221
			c-3.9,0-6.323,2.632-6.323,6.868v33.698c0,6.388,5.509,13.01,11.79,14.171l71.313,13.191c0.594,0.11,1.176,0.165,1.732,0.165
			c3.9,0,6.323-2.632,6.323-6.868v-33.698c0-6.388-5.509-13.01-11.79-14.171l-71.312-13.19
			C85.586,204.277,85.003,204.221,84.447,204.221z"/>
		<polygon style="fill:#005CB9;" points="240.614,78.657 22.583,120.28 22.583,225.466 240.614,267.089 		"/>
		<polygon style="fill:#1E252B;" points="22.583,199.62 240.614,231.882 240.614,220.011 22.583,187.749 		"/>
		<path style="fill:#61B4E4;" d="M30.796,229.106c0,8.503-6.894,15.398-15.398,15.398C6.893,244.503,0,237.609,0,229.106V116.64
			c0-8.504,6.893-15.398,15.397-15.398c8.505,0,15.398,6.894,15.398,15.398L30.796,229.106L30.796,229.106z"/>
		<path style="fill:#61B4E4;" d="M256.012,267.089c0,8.504-6.894,15.398-15.398,15.398s-15.397-6.894-15.397-15.398V78.657
			c0-8.504,6.893-15.397,15.397-15.397s15.398,6.894,15.398,15.397V267.089z"/>
	</g>

	<g transform="translate(-60,40)">
	<path style="fill:#231F20;" d="M348.563,161.296c1.929,3.34,5.429,5.208,9.029,5.208c1.766,0,3.558-0.45,5.198-1.397l97.412-56.242
		c4.98-2.875,6.687-9.245,3.811-14.225s-9.246-6.687-14.225-3.811l-97.412,56.242C347.394,149.946,345.688,156.314,348.563,161.296z
		"/>
	<path style="fill:#231F20;" d="M333.904,118.043c1.64,0.948,3.43,1.397,5.198,1.397c3.599,0,7.099-1.868,9.029-5.208l56.242-97.414
		c2.875-4.98,1.169-11.349-3.811-14.225c-4.98-2.877-11.349-1.17-14.225,3.811l-56.242,97.414
		C327.217,108.798,328.923,115.168,333.904,118.043z"/>
	<path style="fill:#231F20;" d="M501.587,185.201H389.103c-5.751,0-10.414,4.663-10.414,10.414c0,5.751,4.663,10.414,10.414,10.414
		h112.483c5.751,0,10.414-4.663,10.414-10.414C512,189.864,507.339,185.201,501.587,185.201z"/>
	</g>

</svg>
