<?xml version="1.0" encoding="iso-8859-1"?>
<svg version="1.1" xmlns="http://www.w3.org/2000/svg"
	 xmlns:xlink="http://www.w3.org/1999/xlink" viewBox="95 105 320 300">

<g>
	<circle style="fill:#1565C0;" cx="151.272" cy="161.84" r="18.28"/>
	<path style="fill:#1565C0;" d="M171.68,187.432h-40.816c-14.392,0-26.104,11.712-26.104,26.104v51.192
		c0,5.24,4.248,9.496,9.496,9.496s9.496-4.248,9.496-9.496v-45.912h5.696v43.288c0,0.024-0.008,0.04-0.008,0.064v96.784
		c0,5.24,4.248,9.496,9.496,9.496c5.24,0,9.496-4.248,9.496-9.496v-77.864h5.696v77.864c0,5.24,4.248,9.496,9.496,9.496
		c5.24,0,9.496-4.248,9.496-9.496v-77.864V262.16v-43.344h5.696v45.912c0,5.24,4.248,9.496,9.496,9.496
		c5.24,0,9.496-4.248,9.496-9.496v-51.192C197.784,199.144,186.072,187.432,171.68,187.432z"/>
</g>
<g>
	<circle style="fill:#999999;" cx="255.968" cy="161.84" r="18.28"/>
	<path style="fill:#999999;" d="M276.376,187.432H235.56c-14.392,0-26.104,11.712-26.104,26.104v51.192
		c0,5.24,4.248,9.496,9.496,9.496c5.24,0,9.496-4.248,9.496-9.496v-45.912h5.696v43.288c0,0.024-0.008,0.04-0.008,0.064v96.784
		c0,5.24,4.248,9.496,9.496,9.496c5.24,0,9.496-4.248,9.496-9.496v-77.864h5.696v77.864c0,5.24,4.248,9.496,9.496,9.496
		c5.24,0,9.496-4.248,9.496-9.496v-77.864V262.16v-43.344h5.696v45.912c0,5.24,4.248,9.496,9.496,9.496
		c5.24,0,9.496-4.248,9.496-9.496v-51.192C302.48,199.144,290.768,187.432,276.376,187.432z"/>
	<circle style="fill:#999999;" cx="360.72" cy="161.84" r="18.28"/>
	<path style="fill:#999999;" d="M381.136,187.432H340.32c-14.392,0-26.104,11.712-26.104,26.104v51.192
		c0,5.24,4.248,9.496,9.496,9.496s9.496-4.248,9.496-9.496v-45.912h5.696v43.288c0,0.024-0.008,0.04-0.008,0.064v96.784
		c0,5.24,4.248,9.496,9.496,9.496c5.24,0,9.496-4.248,9.496-9.496v-77.864h5.696v77.864c0,5.24,4.248,9.496,9.496,9.496
		c5.24,0,9.496-4.248,9.496-9.496v-77.864V262.16v-43.344h5.696v45.912c0,5.24,4.248,9.496,9.496,9.496
		c5.24,0,9.496-4.248,9.496-9.496v-51.192C407.24,199.144,395.528,187.432,381.136,187.432z"/>
</g>

</svg>
