<?xml version="1.0" encoding="iso-8859-1"?>
<svg version="1.1" id="Capa_1" xmlns="http://www.w3.org/2000/svg" x="0px" y="0px" viewBox="0 0 58 58" style="enable-background:new 0 0 58 58;" xml:space="preserve">
	<circle style="fill:#1565c0;" cx="29" cy="29" r="29"/>

	<path style="fill:#24AE5F;" d="M29,0c-4.03,0-7.866,0.823-11.353,2.308c-0.159,0.949-0.952,2.57-0.928,3.087
		c0.112,0.022,7.373-7.4,6.472-2.39C22.61,6.23,16.675,6.211,16.93,9.458c6.236,2.445,8.411-4.642,13.708-4.613
		c1.767,0.01,6.292-2.784,7.155-2.215c3.496,2.303-0.799,10.467-3.474,7.75c-2.572-2.572-6.242,0.901-6.077,4.912
		c1.337,0.06,1.908-3.796,3.11-2.51c1.324,1.417,0.846,4.27-0.986,4.925c-1.844,0.659-9.077-4.89-7.3-0.684
		c1.954,4.668-5.854,8.275,2.028,6.393c3.716-0.891,2.481,1.937,4.234,3.286c2.088,1.603,1.164-2.214,2.686-1.633
		c2.215,0.857-0.381,3.065,3.088,1.462c4.069-1.856,2.54,1.038,3.786,2.93c2.336,3.532,8.077,6.922,11.086,2.254
		c0.709-1.101,0.254-9.807,4.72-3.967c2.836,3.71,1.863-4.383,2.247-6.509C53.547,8.993,42.327,0,29,0z"/>

	<path style="fill:#FAC176;" d="M32.919,42.082l-5.348-4.008l-3.585,0.141l-3.719-1.17l-2.911-2.007l-6.603,1.526L8.03,37.881
		L5,41.963l1.072,4.784c0.306,0.395,0.623,0.782,0.949,1.161l5.608,2.618l3.785,0.511l2.252,4.622l0.068,0.465
		C21.926,57.333,25.385,58,29,58c2.494,0,4.914-0.315,7.224-0.908l0.761-4.544l3.459-2.807l1.437-4.481l-7.222-0.03L32.919,42.082z"
		/>
	<path style="fill:#88C057;" d="M0.375,33.647c0.138-0.012,0.156-0.024,0.168-0.036c1.297-1.296,2.377-1.513,3.458-3.458
		c1.081-1.945-0.216-1.945,0-5.187c0.216-3.242-0.216-1.729,0-5.187c0.078-1.244-0.053-1.928-1.565-2.417C0.873,20.926,0,24.86,0,29
		C0,30.582,0.131,32.133,0.375,33.647z"/>
	<path style="fill:#88C057;" d="M40.444,49.741l1.437-4.481l-7.222-0.03l-1.741-3.148l-5.348-4.008l-3.585,0.141l-3.719-1.17
		l-2.911-2.007l-6.603,1.526L8.03,37.881l-2.361,3.18C11.889,43.257,20.943,46.34,21,46c0.083-0.5,2.083,2.333,3,4
		c0.917,1.667,4.917,2.917,6,3c1.083,0.083,2.25-1.083,5,0c0.705,0.278,1.292,0.488,1.801,0.647l0.184-1.099L40.444,49.741z"/>
</svg>
