<?xml version="1.0" standalone="no"?>
<!DOCTYPE svg PUBLIC "-//W3C//DTD SVG 20010904//EN"
 "http://www.w3.org/TR/2001/REC-SVG-20010904/DTD/svg10.dtd">
<svg version="1.0" xmlns="http://www.w3.org/2000/svg"
 width="800.000000pt" height="800.000000pt" viewBox="0 0 800.000000 800.000000"
 preserveAspectRatio="xMidYMid meet">
<metadata>
Created by potrace 1.11, written by Peter Selinger 2001-2013
</metadata>
<g transform="translate(0.000000,800.000000) scale(0.100000,-0.100000)"
fill="#000000" stroke="none">
<path d="M3554 7593 c-1 -446 -4 -484 -57 -588 -34 -68 -131 -169 -201 -210
-186 -109 -449 -39 -595 159 -55 74 -98 194 -105 291 -1 13 -397 16 -413 3 -7
-6 -11 -13 -9 -17 2 -3 7 -37 10 -76 18 -201 123 -412 281 -567 91 -90 276
-199 364 -215 14 -2 29 -7 35 -11 12 -7 11 -7 71 -16 23 -4 52 -9 65 -12 14
-4 502 -7 1085 -9 583 -1 1083 -5 1110 -9 141 -21 308 -147 374 -282 33 -67
36 -77 47 -146 l6 -37 -233 0 c-264 -1 -304 -4 -409 -27 -75 -16 -242 -80
-248 -96 -2 -4 -8 -8 -14 -8 -19 0 -134 -88 -196 -150 -110 -109 -213 -296
-239 -430 -2 -14 -9 -45 -15 -70 -13 -51 -23 -4119 -10 -4121 46 -6 395 -2
400 5 3 5 5 177 5 381 l0 373 88 -45 c77 -39 186 -77 254 -88 88 -15 149 -19
272 -19 l143 -1 0 -592 0 -592 210 0 c154 0 210 4 210 12 5 100 4 187 -2 187
-3 0 -4 8 -2 18 8 33 9 142 2 144 -4 2 -4 9 1 16 7 11 17 9 50 -12 35 -22 74
-42 101 -51 3 -1 19 -7 35 -14 51 -21 178 -50 251 -57 62 -6 143 -8 260 -5
l41 1 0 205 c0 144 -3 205 -11 206 -6 0 -74 2 -152 4 -212 4 -296 34 -415 148
-85 81 -150 220 -153 327 l-1 55 350 1 c193 1 358 2 367 3 15 1 16 21 16 206
l-1 205 -728 1 c-401 1 -732 2 -736 3 -5 1 -25 5 -46 10 -49 9 -157 56 -157
67 0 5 -6 9 -12 9 -17 0 -96 75 -130 120 -44 62 -84 157 -94 225 -4 36 -6 936
-1 941 1 2 365 4 808 4 737 1 811 3 882 19 42 10 77 16 77 13 0 -2 6 0 13 5 6
5 35 18 62 28 57 20 162 75 191 100 7 6 27 21 46 35 80 60 223 227 226 264 0
5 4 12 9 15 17 11 89 181 77 181 -4 0 -2 6 4 13 5 6 13 37 17 67 4 30 9 64 12
75 6 25 11 714 6 736 -4 13 -32 15 -209 15 l-204 0 0 -341 c0 -377 -5 -417
-63 -534 -40 -82 -134 -177 -211 -215 -31 -15 -62 -29 -69 -30 -7 -2 -32 -9
-57 -16 -48 -14 -480 -22 -480 -9 0 4 20 47 44 95 48 95 82 205 93 294 8 67 9
287 1 295 -9 9 -391 6 -399 -3 -4 -4 -9 -61 -10 -127 -1 -66 -9 -145 -17 -175
-23 -90 -78 -184 -141 -240 -72 -65 -68 -62 -123 -88 -81 -38 -154 -50 -353
-58 -193 -8 -225 -8 -232 -1 -7 8 -8 1152 0 1222 23 213 171 375 397 436 34 9
296 13 1060 15 558 1 1018 2 1021 3 9 2 12 66 6 139 -2 18 0 35 4 38 4 2 4 17
0 32 -3 15 -6 66 -5 115 l2 87 -32 1 c-17 0 -88 0 -158 0 -140 -1 -141 -1 -96
58 10 13 15 27 12 32 -3 5 -2 9 3 9 7 0 16 17 38 75 5 11 9 25 10 30 2 6 8 30
15 55 7 25 14 54 17 65 3 11 6 113 8 228 l2 207 -204 0 -203 0 -1 -152 c-1
-179 -3 -195 -31 -268 -57 -145 -183 -271 -319 -319 -26 -9 -108 -23 -139 -23
-26 -1 -40 3 -36 11 9 14 -21 164 -49 246 -124 359 -455 609 -835 630 -30 1
-58 3 -62 4 -4 1 10 36 31 79 46 90 72 152 65 152 -3 0 0 9 6 20 14 26 36 145
35 192 0 21 2 38 5 38 5 0 3 372 -2 420 l-3 25 -207 0 -208 0 1 -210 c1 -307
-7 -352 -90 -485 -74 -119 -211 -206 -360 -226 -56 -8 -529 -9 -537 -2 -3 3
10 37 30 76 35 69 71 171 81 227 2 17 8 41 11 55 4 14 8 222 9 463 l2 437
-206 0 -207 0 0 -407z"/>
<path d="M1600 6460 l-55 -5 0 -187 c0 -104 -3 -188 -8 -188 -4 0 -42 17 -85
39 -42 21 -102 46 -132 55 -30 9 -68 21 -85 26 -46 13 -137 21 -292 25 l-143
4 0 -209 c0 -161 3 -210 13 -211 6 0 66 -2 132 -4 186 -5 244 -16 335 -64 62
-33 170 -145 202 -211 39 -80 47 -109 52 -190 4 -49 2 -56 -17 -61 -12 -3 -34
-2 -49 2 -17 5 -28 4 -28 -2 0 -6 -5 -7 -10 -4 -9 6 -119 7 -216 3 -22 -1 -44
1 -50 4 -5 3 -18 2 -29 -2 -11 -4 -32 -4 -47 1 -16 4 -30 3 -34 -2 -3 -5 -9
-7 -14 -4 -9 5 -68 7 -147 3 -24 -1 -45 1 -48 4 -4 3 -15 4 -26 1 -19 -5 -19
-14 -17 -212 l3 -206 980 -1 c539 -1 994 -5 1010 -8 182 -39 330 -170 392
-347 25 -73 25 -78 27 -394 1 -176 0 -327 -2 -336 -3 -14 -27 -16 -198 -15
-107 0 -194 3 -194 6 0 3 -12 6 -26 7 -35 2 -160 64 -207 103 -57 48 -126 152
-154 232 -21 61 -25 91 -26 205 l-2 133 -207 0 c-190 0 -207 -1 -207 -17 -2
-166 4 -290 14 -324 3 -10 8 -27 10 -38 3 -12 7 -29 9 -40 11 -49 41 -123 77
-190 25 -46 36 -78 31 -83 -6 -6 -12 -6 -16 0 -3 6 -20 7 -40 2 -19 -4 -39 -4
-46 0 -6 4 -24 5 -38 3 -15 -2 -54 -4 -87 -3 -59 1 -72 1 -97 -1 -50 -3 -160
16 -216 37 -120 45 -204 115 -263 219 -18 33 -35 64 -36 70 -1 5 -10 37 -19
70 -11 40 -17 100 -17 178 l-1 117 -207 0 c-189 0 -207 -2 -211 -17 -5 -25 -1
-211 6 -253 3 -19 8 -53 11 -75 8 -61 33 -140 66 -213 130 -283 382 -477 695
-536 55 -10 242 -13 828 -13 416 0 760 -3 763 -7 8 -8 8 -1479 0 -1527 -32
-185 -191 -351 -392 -407 -11 -3 -285 -6 -610 -8 -324 -1 -598 -3 -608 -3 -16
-1 -17 -16 -15 -208 l3 -208 152 0 c96 0 153 -4 152 -10 -2 -14 -13 -41 -44
-109 -70 -152 -84 -237 -88 -521 l-2 -130 203 0 c111 0 203 2 203 5 1 3 3 75
4 160 3 223 37 332 138 441 107 116 223 161 447 174 90 5 125 10 182 26 24 7
45 13 48 14 32 7 99 36 158 67 41 22 76 37 79 34 4 -3 7 -146 7 -318 l1 -313
200 0 200 0 3 2693 c2 2150 0 2692 -10 2692 -22 1 -301 1 -351 1 l-47 -1 0
-357 c0 -197 0 -366 0 -376 0 -14 -5 -17 -22 -11 -13 4 -25 10 -28 13 -9 12
-112 59 -175 80 -124 41 -167 44 -573 46 -215 1 -395 5 -398 8 -4 3 -15 2 -24
-3 -21 -11 -45 11 -37 33 3 8 2 19 -2 26 -4 6 -5 32 -1 56 4 24 3 50 -1 57 -4
6 -5 17 -1 23 7 11 5 113 -3 125 -3 5 -2 11 3 14 5 3 7 24 5 48 -5 51 -3 129
2 138 2 3 0 12 -4 18 -4 7 -5 33 -1 57 4 24 3 50 -1 57 -4 6 -5 16 -2 21 6 10
7 497 0 503 -7 7 -291 10 -357 4z"/>
</g>
</svg>
