<?xml version="1.0" encoding="iso-8859-1"?>
<!-- Generator: Adobe Illustrator 19.0.0, SVG Export Plug-In . SVG Version: 6.00 Build 0)  -->
<svg version="1.1" id="Layer_1" xmlns="http://www.w3.org/2000/svg" xmlns:xlink="http://www.w3.org/1999/xlink" x="0px" y="0px"
	 viewBox="0 0 512 512" style="enable-background:new 0 0 512 512;" xml:space="preserve">
<path style="fill:#F1ECDE;" d="M89.288,302.988c-9.395-9.395-22.314-22.314-25.165-25.165c-12.8-12.8-33.553-12.8-46.353,0
	s-12.8,33.553,0,46.353c1.569,1.569,6.188,6.188,11.589,11.589l-11.589,11.588c-12.8,12.8-12.8,33.553,0,46.353
	s33.553,12.8,46.353,0l25.165-25.165h116.595v-65.553H89.288z"/>
<path style="fill:#E2D8BD;" d="M470.607,202.864c18.345,0,33.226,14.87,33.226,33.226c0,18.345-14.881,33.226-33.226,33.226h-10.894
	c18.345,0,33.226,14.87,33.226,33.226c0,18.345-14.881,33.226-33.226,33.226H448.82c18.345,0,33.226,14.87,33.226,33.226
	c0,18.345-14.881,33.226-33.226,33.226h-10.894c18.345,0,33.226,14.87,33.226,33.226c0,18.345-14.881,33.226-33.226,33.226H396.17
	V202.864H470.607z"/>
<path style="fill:#A59D8C;" d="M396.17,202.864v265.807H173.197V202.864h21.787c69.524,0,125.322-56.364,125.322-125.888
	c0-18.585,15.066-33.64,33.651-33.64c18.574,0,33.64,15.055,33.64,33.64c0,45.95-11.286,90.919-34.065,125.888H396.17z"/>
<g>
	<path style="fill:#68615B;" d="M336.608,427.816H205.883c-4.513,0-8.17-3.657-8.17-8.17c0-4.513,3.657-8.17,8.17-8.17h130.725
		c4.513,0,8.17,3.657,8.17,8.17C344.778,424.159,341.121,427.816,336.608,427.816z"/>
	<path style="fill:#68615B;" d="M341.699,268.886l5.777-5.777c3.191-3.192,3.191-8.364,0-11.555c-3.192-3.19-8.364-3.19-11.555,0
		l-5.777,5.777l-5.777-5.777c-3.192-3.19-8.364-3.19-11.555,0c-3.191,3.192-3.191,8.364,0,11.555l5.777,5.777l-5.777,5.777
		c-3.191,3.192-3.191,8.364,0,11.555c1.596,1.595,3.688,2.392,5.778,2.392s4.182-0.797,5.778-2.392l5.777-5.777l5.777,5.777
		c1.596,1.595,3.688,2.392,5.778,2.392s4.182-0.797,5.778-2.392c3.191-3.192,3.191-8.364,0-11.555L341.699,268.886z"/>
</g>
<g>
	<path style="fill:#440852;" d="M501.106,302.538c0-11.449-4.674-21.827-12.212-29.328C502.57,266.445,512,252.348,512,236.086
		c0-22.826-18.571-41.396-41.396-41.396l-102.702,0.002c18.043-33.176,27.864-74.377,27.864-117.717
		c0-23.056-18.758-41.813-41.813-41.813c-23.056,0-41.813,18.758-41.813,41.813c0,64.908-52.554,117.714-117.15,117.714h-21.787
		c-4.513,0-8.17,3.657-8.17,8.17V360.37H89.288c-2.167,0-4.244,0.861-5.778,2.393l-25.165,25.165
		c-9.594,9.596-25.205,9.596-34.798,0c-9.595-9.594-9.595-25.204,0-34.797l11.589-11.589c3.191-3.192,3.191-8.364,0-11.555
		l-11.589-11.589c-9.595-9.594-9.595-25.204,0-34.797c9.594-9.596,25.205-9.596,34.798,0l25.165,25.165
		c1.533,1.532,3.61,2.392,5.778,2.392h51.232c4.513,0,8.17-3.657,8.17-8.17s-3.657-8.17-8.17-8.17H92.672l-22.77-22.771
		c-15.966-15.964-41.943-15.964-57.909,0C4.259,279.78,0,290.063,0,300.999c0,10.937,4.259,21.22,11.993,28.954l5.812,5.811
		l-5.812,5.811C4.259,349.309,0,359.592,0,370.529c0,10.936,4.259,21.22,11.993,28.953c7.983,7.982,18.468,11.973,28.954,11.973
		c10.485,0,20.972-3.991,28.954-11.974l22.77-22.771h72.359v91.957c0,4.513,3.657,8.17,8.17,8.17h264.721
		c22.826,0,41.396-18.571,41.396-41.396c0-11.449-4.674-21.827-12.212-29.328c13.676-6.765,23.106-20.862,23.106-37.124
		c0-11.449-4.674-21.827-12.212-29.328C491.677,332.897,501.106,318.801,501.106,302.538z M459.71,327.594h-30.863
		c-4.513,0-8.17,3.657-8.17,8.17c0,4.513,3.657,8.17,8.17,8.17h19.969c13.817,0,25.056,11.239,25.056,25.056
		c0,13.817-11.239,25.056-25.056,25.056h-19.969c-4.513,0-8.17,3.657-8.17,8.17s3.657,8.17,8.17,8.17h9.076
		c13.817,0,25.056,11.239,25.056,25.056s-11.239,25.056-25.056,25.056H181.372V211.031h13.617c35.783,0,69.353-13.951,94.526-39.282
		c25.126-25.283,38.965-58.941,38.965-94.773c0-14.046,11.426-25.473,25.473-25.473c14.046,0,25.473,11.426,25.473,25.473
		c0,45.894-11.627,89.018-32.738,121.427c-1.636,2.512-1.766,5.718-0.338,8.353s4.185,4.277,7.183,4.277l117.071-0.002
		c13.817,0,25.056,11.239,25.056,25.056c0,13.817-11.239,25.056-25.056,25.056h-41.757c-4.513,0-8.17,3.657-8.17,8.17
		c0,4.513,3.657,8.17,8.17,8.17h30.863c13.817,0,25.056,11.239,25.056,25.056C484.766,316.355,473.527,327.594,459.71,327.594z"/>
	<path style="fill:#440852;" d="M396.166,227.373c-4.513,0-8.17,3.657-8.17,8.17v200.442c0,4.513,3.657,8.17,8.17,8.17
		s8.17-3.657,8.17-8.17V235.544C404.336,231.032,400.679,227.373,396.166,227.373z"/>
	<path style="fill:#440852;" d="M303.926,444.155c-4.513,0-8.17-3.657-8.17-8.17v-32.681c0-4.513,3.657-8.17,8.17-8.17
		s8.17,3.657,8.17,8.17v32.681C312.097,440.497,308.44,444.155,303.926,444.155z"/>
	<path style="fill:#440852;" d="M271.245,444.155c-4.513,0-8.17-3.657-8.17-8.17v-32.681c0-4.513,3.657-8.17,8.17-8.17
		c4.513,0,8.17,3.657,8.17,8.17v32.681C279.416,440.497,275.759,444.155,271.245,444.155z"/>
	<path style="fill:#440852;" d="M238.564,444.155c-4.513,0-8.17-3.657-8.17-8.17v-32.681c0-4.513,3.657-8.17,8.17-8.17
		s8.17,3.657,8.17,8.17v32.681C246.734,440.497,243.077,444.155,238.564,444.155z"/>
</g>
<g>
</g>
<g>
</g>
<g>
</g>
<g>
</g>
<g>
</g>
<g>
</g>
<g>
</g>
<g>
</g>
<g>
</g>
<g>
</g>
<g>
</g>
<g>
</g>
<g>
</g>
<g>
</g>
<g>
</g>
</svg>
