<?xml version="1.0" encoding="UTF-8" standalone="no"?>
<svg viewBox="0 100 400 180" version="1.1" xmlns="http://www.w3.org/2000/svg">

		 <g transform="matrix(1.3333333,0,0,-1.3333333,0,400)" id="g10">
		 <g id="g12"><g clip-path="url(#clipPath18)" id="g14">
		 <path
           id="path28"
           style="fill:#80888e;fill-opacity:1;fill-rule:nonzero;stroke:none"
           d="m 133,127 h -21 v 11 h 21 z" /><g
           transform="translate(263.3613,120)"
           id="g30"><path
             id="path32"
             style="fill:#b6bbc1;fill-opacity:1;fill-rule:nonzero;stroke:none"
             d="m 0,0 h -83.361 c -6.6,0 -12,5.4 -12,12 v 31.5 c 0,6.6 5.4,12 12,12 H 0 c 6.601,0 12,-5.4 12,-12 V 12 C 12,5.4 6.601,0 0,0" /></g><g
           transform="translate(250.5,167)"
           id="g34"><path
             id="path36"
             style="fill:#b6bbc1;fill-opacity:1;fill-rule:nonzero;stroke:none"
             d="m 0,0 v 0 c -5.775,0 -10.5,4.725 -10.5,10.5 v 19 C -10.5,35.275 -5.775,40 0,40 5.775,40 10.5,35.275 10.5,29.5 v -19 C 10.5,4.725 5.775,0 0,0" /></g><g
           transform="translate(256.5,196)"
           id="g38"><path
             id="path40"
             style="fill:#b6bbc1;fill-opacity:1;fill-rule:nonzero;stroke:none"
             d="m 0,0 h -12 c -5.775,0 -10.5,4.725 -10.5,10.5 v 8 c 0,5.775 4.725,10.5 10.5,10.5 H 0 c 5.775,0 10.5,-4.725 10.5,-10.5 v -8 C 10.5,4.725 5.775,0 0,0" /></g><g
           transform="translate(188,120)"
           id="g42"><path
             id="path44"
             style="fill:#b6bbc1;fill-opacity:1;fill-rule:nonzero;stroke:none"
             d="m 0,0 h -50 c -6.6,0 -12,5.4 -12,12 v 75 c 0,6.6 5.4,12 12,12 H 0 C 6.6,99 12,93.6 12,87 V 12 C 12,5.4 6.6,0 0,0" /></g><g
           transform="translate(298,120)"
           id="g46"><path
             id="path48"
             style="fill:#b6bbc1;fill-opacity:1;fill-rule:nonzero;stroke:none"
             d="M 0,0 H -33 V 35.549 Z" /></g><g
           transform="translate(156,165)"
           id="g50"><path
             id="path52"
             style="fill:#d4e9f4;fill-opacity:1;fill-rule:nonzero;stroke:none"
             d="m 0,0 h -13 c -2.209,0 -4,1.791 -4,4 v 34 c 0,2.209 1.791,4 4,4 H 0 c 2.209,0 4,-1.791 4,-4 V 4 C 4,1.791 2.209,0 0,0" /></g><g
           transform="translate(181,165)"
           id="g54"><path
             id="path56"
             style="fill:#d4e9f4;fill-opacity:1;fill-rule:nonzero;stroke:none"
             d="m 0,0 h -13 c -2.209,0 -4,1.791 -4,4 v 34 c 0,2.209 1.791,4 4,4 H 0 c 2.209,0 4,-1.791 4,-4 V 4 C 4,1.791 2.209,0 0,0" /></g><g
           transform="translate(214,173)"
           id="g58"><path
             id="path60"
             style="fill:#b6bbc1;fill-opacity:1;fill-rule:nonzero;stroke:none"
             d="m 0,0 h -4 c -1.65,0 -3,1.35 -3,3 v 7 c 0,1.65 1.35,3 3,3 h 4 c 1.65,0 3,-1.35 3,-3 V 3 C 3,1.35 1.65,0 0,0" /></g><g
           transform="translate(223,173)"
           id="g62"><path
             id="path64"
             style="fill:#b6bbc1;fill-opacity:1;fill-rule:nonzero;stroke:none"
             d="m 0,0 v 0 c -1.65,0 -3,1.35 -3,3 v 15 c 0,1.65 1.35,3 3,3 1.65,0 3,-1.35 3,-3 V 3 C 3,1.35 1.65,0 0,0" /></g><g
           transform="translate(195,124)"
           id="g66"><path
             id="path68"
             style="fill:#80888e;fill-opacity:1;fill-rule:nonzero;stroke:none"
             d="m 0,0 c 0,-17.673 -14.327,-32 -32,-32 -17.673,0 -32,14.327 -32,32 0,17.673 14.327,32 32,32 C -14.327,32 0,17.673 0,0" /></g><g
           transform="translate(231,110)"
           id="g70"><path
             id="path72"
             style="fill:#80888e;fill-opacity:1;fill-rule:nonzero;stroke:none"
             d="m 0,0 c 0,-9.941 -8.059,-18 -18,-18 -9.941,0 -18,8.059 -18,18 0,9.941 8.059,18 18,18 C -8.059,18 0,9.941 0,0" /></g><g
           transform="translate(267,110)"
           id="g74"><path
             id="path76"
             style="fill:#80888e;fill-opacity:1;fill-rule:nonzero;stroke:none"
             d="m 0,0 c 0,-9.941 -8.059,-18 -18,-18 -9.941,0 -18,8.059 -18,18 0,9.941 8.059,18 18,18 C -8.059,18 0,9.941 0,0" /></g><path
           id="path78"
           style="fill:#b6bbc1;fill-opacity:1;fill-rule:nonzero;stroke:none"
           d="M 115,121 H 3 v 91 h 112 z" /><g
           transform="translate(45,110)"
           id="g80"><path
             id="path82"
             style="fill:#80888e;fill-opacity:1;fill-rule:nonzero;stroke:none"
             d="m 0,0 c 0,-9.941 -8.059,-18 -18,-18 -9.941,0 -18,8.059 -18,18 0,9.941 8.059,18 18,18 C -8.059,18 0,9.941 0,0" /></g><g
           transform="translate(108,110)"
           id="g84"><path
             id="path86"
             style="fill:#80888e;fill-opacity:1;fill-rule:nonzero;stroke:none"
             d="m 0,0 c 0,-9.941 -8.059,-18 -18,-18 -9.941,0 -18,8.059 -18,18 0,9.941 8.059,18 18,18 C -8.059,18 0,9.941 0,0" /></g><g
           transform="translate(212,185)"
           id="g88"><path
             id="path90"
             style="fill:#b6bbc1;fill-opacity:1;fill-rule:nonzero;stroke:none"
             d="M 0,0 V 0 C -0.55,0 -1,0.45 -1,1 V 4 C -1,4.55 -0.55,5 0,5 0.55,5 1,4.55 1,4 V 1 C 1,0.45 0.55,0 0,0" /></g></g></g></g></svg>